<svg xmlns="http://www.w3.org/2000/svg" xml:space="preserve" xmlns:xlink="http://www.w3.org/1999/xlink" style="max-width: 100%;height: auto;" width="990" height="990" viewBox="0 0 990 990">
<rect width="990" height="990" fill="#ffffff" x="0" y="0"></rect>
<g fill="#000000">
<g transform="translate(220,44) scale(3.7766666666667)"><rect width="6" height="6"></rect></g>
<g transform="translate(242,44) scale(3.7766666666667)"><rect width="6" height="6"></rect></g>
<g transform="translate(308,44) scale(3.7766666666667)"><rect width="6" height="6"></rect></g>
<g transform="translate(330,44) scale(3.7766666666667)"><rect width="6" height="6"></rect></g>
<g transform="translate(352,44) scale(3.7766666666667)"><rect width="6" height="6"></rect></g>
<g transform="translate(374,44) scale(3.7766666666667)"><rect width="6" height="6"></rect></g>
<g transform="translate(396,44) scale(3.7766666666667)"><rect width="6" height="6"></rect></g>
<g transform="translate(462,44) scale(3.7766666666667)"><rect width="6" height="6"></rect></g>
<g transform="translate(572,44) scale(3.7766666666667)"><rect width="6" height="6"></rect></g>
<g transform="translate(616,44) scale(3.7766666666667)"><rect width="6" height="6"></rect></g>
<g transform="translate(660,44) scale(3.7766666666667)"><rect width="6" height="6"></rect></g>
<g transform="translate(682,44) scale(3.7766666666667)"><rect width="6" height="6"></rect></g>
<g transform="translate(704,44) scale(3.7766666666667)"><rect width="6" height="6"></rect></g>
<g transform="translate(726,44) scale(3.7766666666667)"><rect width="6" height="6"></rect></g>
<g transform="translate(748,44) scale(3.7766666666667)"><rect width="6" height="6"></rect></g>
<g transform="translate(220,66) scale(3.7766666666667)"><rect width="6" height="6"></rect></g>
<g transform="translate(264,66) scale(3.7766666666667)"><rect width="6" height="6"></rect></g>
<g transform="translate(374,66) scale(3.7766666666667)"><rect width="6" height="6"></rect></g>
<g transform="translate(484,66) scale(3.7766666666667)"><rect width="6" height="6"></rect></g>
<g transform="translate(528,66) scale(3.7766666666667)"><rect width="6" height="6"></rect></g>
<g transform="translate(550,66) scale(3.7766666666667)"><rect width="6" height="6"></rect></g>
<g transform="translate(638,66) scale(3.7766666666667)"><rect width="6" height="6"></rect></g>
<g transform="translate(682,66) scale(3.7766666666667)"><rect width="6" height="6"></rect></g>
<g transform="translate(220,88) scale(3.7766666666667)"><rect width="6" height="6"></rect></g>
<g transform="translate(264,88) scale(3.7766666666667)"><rect width="6" height="6"></rect></g>
<g transform="translate(286,88) scale(3.7766666666667)"><rect width="6" height="6"></rect></g>
<g transform="translate(330,88) scale(3.7766666666667)"><rect width="6" height="6"></rect></g>
<g transform="translate(352,88) scale(3.7766666666667)"><rect width="6" height="6"></rect></g>
<g transform="translate(396,88) scale(3.7766666666667)"><rect width="6" height="6"></rect></g>
<g transform="translate(418,88) scale(3.7766666666667)"><rect width="6" height="6"></rect></g>
<g transform="translate(440,88) scale(3.7766666666667)"><rect width="6" height="6"></rect></g>
<g transform="translate(484,88) scale(3.7766666666667)"><rect width="6" height="6"></rect></g>
<g transform="translate(506,88) scale(3.7766666666667)"><rect width="6" height="6"></rect></g>
<g transform="translate(528,88) scale(3.7766666666667)"><rect width="6" height="6"></rect></g>
<g transform="translate(550,88) scale(3.7766666666667)"><rect width="6" height="6"></rect></g>
<g transform="translate(616,88) scale(3.7766666666667)"><rect width="6" height="6"></rect></g>
<g transform="translate(660,88) scale(3.7766666666667)"><rect width="6" height="6"></rect></g>
<g transform="translate(682,88) scale(3.7766666666667)"><rect width="6" height="6"></rect></g>
<g transform="translate(704,88) scale(3.7766666666667)"><rect width="6" height="6"></rect></g>
<g transform="translate(726,88) scale(3.7766666666667)"><rect width="6" height="6"></rect></g>
<g transform="translate(748,88) scale(3.7766666666667)"><rect width="6" height="6"></rect></g>
<g transform="translate(242,110) scale(3.7766666666667)"><rect width="6" height="6"></rect></g>
<g transform="translate(286,110) scale(3.7766666666667)"><rect width="6" height="6"></rect></g>
<g transform="translate(308,110) scale(3.7766666666667)"><rect width="6" height="6"></rect></g>
<g transform="translate(352,110) scale(3.7766666666667)"><rect width="6" height="6"></rect></g>
<g transform="translate(374,110) scale(3.7766666666667)"><rect width="6" height="6"></rect></g>
<g transform="translate(462,110) scale(3.7766666666667)"><rect width="6" height="6"></rect></g>
<g transform="translate(726,110) scale(3.7766666666667)"><rect width="6" height="6"></rect></g>
<g transform="translate(748,110) scale(3.7766666666667)"><rect width="6" height="6"></rect></g>
<g transform="translate(242,132) scale(3.7766666666667)"><rect width="6" height="6"></rect></g>
<g transform="translate(264,132) scale(3.7766666666667)"><rect width="6" height="6"></rect></g>
<g transform="translate(286,132) scale(3.7766666666667)"><rect width="6" height="6"></rect></g>
<g transform="translate(330,132) scale(3.7766666666667)"><rect width="6" height="6"></rect></g>
<g transform="translate(396,132) scale(3.7766666666667)"><rect width="6" height="6"></rect></g>
<g transform="translate(462,132) scale(3.7766666666667)"><rect width="6" height="6"></rect></g>
<g transform="translate(484,132) scale(3.7766666666667)"><rect width="6" height="6"></rect></g>
<g transform="translate(506,132) scale(3.7766666666667)"><rect width="6" height="6"></rect></g>
<g transform="translate(616,132) scale(3.7766666666667)"><rect width="6" height="6"></rect></g>
<g transform="translate(660,132) scale(3.7766666666667)"><rect width="6" height="6"></rect></g>
<g transform="translate(682,132) scale(3.7766666666667)"><rect width="6" height="6"></rect></g>
<g transform="translate(704,132) scale(3.7766666666667)"><rect width="6" height="6"></rect></g>
<g transform="translate(726,132) scale(3.7766666666667)"><rect width="6" height="6"></rect></g>
<g transform="translate(748,132) scale(3.7766666666667)"><rect width="6" height="6"></rect></g>
<g transform="translate(220,154) scale(3.7766666666667)"><rect width="6" height="6"></rect></g>
<g transform="translate(308,154) scale(3.7766666666667)"><rect width="6" height="6"></rect></g>
<g transform="translate(352,154) scale(3.7766666666667)"><rect width="6" height="6"></rect></g>
<g transform="translate(374,154) scale(3.7766666666667)"><rect width="6" height="6"></rect></g>
<g transform="translate(418,154) scale(3.7766666666667)"><rect width="6" height="6"></rect></g>
<g transform="translate(462,154) scale(3.7766666666667)"><rect width="6" height="6"></rect></g>
<g transform="translate(484,154) scale(3.7766666666667)"><rect width="6" height="6"></rect></g>
<g transform="translate(506,154) scale(3.7766666666667)"><rect width="6" height="6"></rect></g>
<g transform="translate(528,154) scale(3.7766666666667)"><rect width="6" height="6"></rect></g>
<g transform="translate(550,154) scale(3.7766666666667)"><rect width="6" height="6"></rect></g>
<g transform="translate(594,154) scale(3.7766666666667)"><rect width="6" height="6"></rect></g>
<g transform="translate(638,154) scale(3.7766666666667)"><rect width="6" height="6"></rect></g>
<g transform="translate(748,154) scale(3.7766666666667)"><rect width="6" height="6"></rect></g>
<g transform="translate(220,176) scale(3.7766666666667)"><rect width="6" height="6"></rect></g>
<g transform="translate(264,176) scale(3.7766666666667)"><rect width="6" height="6"></rect></g>
<g transform="translate(308,176) scale(3.7766666666667)"><rect width="6" height="6"></rect></g>
<g transform="translate(352,176) scale(3.7766666666667)"><rect width="6" height="6"></rect></g>
<g transform="translate(396,176) scale(3.7766666666667)"><rect width="6" height="6"></rect></g>
<g transform="translate(440,176) scale(3.7766666666667)"><rect width="6" height="6"></rect></g>
<g transform="translate(484,176) scale(3.7766666666667)"><rect width="6" height="6"></rect></g>
<g transform="translate(528,176) scale(3.7766666666667)"><rect width="6" height="6"></rect></g>
<g transform="translate(572,176) scale(3.7766666666667)"><rect width="6" height="6"></rect></g>
<g transform="translate(616,176) scale(3.7766666666667)"><rect width="6" height="6"></rect></g>
<g transform="translate(660,176) scale(3.7766666666667)"><rect width="6" height="6"></rect></g>
<g transform="translate(704,176) scale(3.7766666666667)"><rect width="6" height="6"></rect></g>
<g transform="translate(748,176) scale(3.7766666666667)"><rect width="6" height="6"></rect></g>
<g transform="translate(220,198) scale(3.7766666666667)"><rect width="6" height="6"></rect></g>
<g transform="translate(242,198) scale(3.7766666666667)"><rect width="6" height="6"></rect></g>
<g transform="translate(330,198) scale(3.7766666666667)"><rect width="6" height="6"></rect></g>
<g transform="translate(352,198) scale(3.7766666666667)"><rect width="6" height="6"></rect></g>
<g transform="translate(374,198) scale(3.7766666666667)"><rect width="6" height="6"></rect></g>
<g transform="translate(462,198) scale(3.7766666666667)"><rect width="6" height="6"></rect></g>
<g transform="translate(506,198) scale(3.7766666666667)"><rect width="6" height="6"></rect></g>
<g transform="translate(528,198) scale(3.7766666666667)"><rect width="6" height="6"></rect></g>
<g transform="translate(572,198) scale(3.7766666666667)"><rect width="6" height="6"></rect></g>
<g transform="translate(594,198) scale(3.7766666666667)"><rect width="6" height="6"></rect></g>
<g transform="translate(616,198) scale(3.7766666666667)"><rect width="6" height="6"></rect></g>
<g transform="translate(660,198) scale(3.7766666666667)"><rect width="6" height="6"></rect></g>
<g transform="translate(88,220) scale(3.7766666666667)"><rect width="6" height="6"></rect></g>
<g transform="translate(110,220) scale(3.7766666666667)"><rect width="6" height="6"></rect></g>
<g transform="translate(132,220) scale(3.7766666666667)"><rect width="6" height="6"></rect></g>
<g transform="translate(176,220) scale(3.7766666666667)"><rect width="6" height="6"></rect></g>
<g transform="translate(220,220) scale(3.7766666666667)"><rect width="6" height="6"></rect></g>
<g transform="translate(242,220) scale(3.7766666666667)"><rect width="6" height="6"></rect></g>
<g transform="translate(286,220) scale(3.7766666666667)"><rect width="6" height="6"></rect></g>
<g transform="translate(308,220) scale(3.7766666666667)"><rect width="6" height="6"></rect></g>
<g transform="translate(330,220) scale(3.7766666666667)"><rect width="6" height="6"></rect></g>
<g transform="translate(352,220) scale(3.7766666666667)"><rect width="6" height="6"></rect></g>
<g transform="translate(374,220) scale(3.7766666666667)"><rect width="6" height="6"></rect></g>
<g transform="translate(418,220) scale(3.7766666666667)"><rect width="6" height="6"></rect></g>
<g transform="translate(484,220) scale(3.7766666666667)"><rect width="6" height="6"></rect></g>
<g transform="translate(550,220) scale(3.7766666666667)"><rect width="6" height="6"></rect></g>
<g transform="translate(594,220) scale(3.7766666666667)"><rect width="6" height="6"></rect></g>
<g transform="translate(682,220) scale(3.7766666666667)"><rect width="6" height="6"></rect></g>
<g transform="translate(726,220) scale(3.7766666666667)"><rect width="6" height="6"></rect></g>
<g transform="translate(770,220) scale(3.7766666666667)"><rect width="6" height="6"></rect></g>
<g transform="translate(792,220) scale(3.7766666666667)"><rect width="6" height="6"></rect></g>
<g transform="translate(814,220) scale(3.7766666666667)"><rect width="6" height="6"></rect></g>
<g transform="translate(880,220) scale(3.7766666666667)"><rect width="6" height="6"></rect></g>
<g transform="translate(902,220) scale(3.7766666666667)"><rect width="6" height="6"></rect></g>
<g transform="translate(924,220) scale(3.7766666666667)"><rect width="6" height="6"></rect></g>
<g transform="translate(88,242) scale(3.7766666666667)"><rect width="6" height="6"></rect></g>
<g transform="translate(110,242) scale(3.7766666666667)"><rect width="6" height="6"></rect></g>
<g transform="translate(154,242) scale(3.7766666666667)"><rect width="6" height="6"></rect></g>
<g transform="translate(198,242) scale(3.7766666666667)"><rect width="6" height="6"></rect></g>
<g transform="translate(242,242) scale(3.7766666666667)"><rect width="6" height="6"></rect></g>
<g transform="translate(264,242) scale(3.7766666666667)"><rect width="6" height="6"></rect></g>
<g transform="translate(308,242) scale(3.7766666666667)"><rect width="6" height="6"></rect></g>
<g transform="translate(352,242) scale(3.7766666666667)"><rect width="6" height="6"></rect></g>
<g transform="translate(506,242) scale(3.7766666666667)"><rect width="6" height="6"></rect></g>
<g transform="translate(550,242) scale(3.7766666666667)"><rect width="6" height="6"></rect></g>
<g transform="translate(572,242) scale(3.7766666666667)"><rect width="6" height="6"></rect></g>
<g transform="translate(660,242) scale(3.7766666666667)"><rect width="6" height="6"></rect></g>
<g transform="translate(704,242) scale(3.7766666666667)"><rect width="6" height="6"></rect></g>
<g transform="translate(726,242) scale(3.7766666666667)"><rect width="6" height="6"></rect></g>
<g transform="translate(748,242) scale(3.7766666666667)"><rect width="6" height="6"></rect></g>
<g transform="translate(770,242) scale(3.7766666666667)"><rect width="6" height="6"></rect></g>
<g transform="translate(792,242) scale(3.7766666666667)"><rect width="6" height="6"></rect></g>
<g transform="translate(836,242) scale(3.7766666666667)"><rect width="6" height="6"></rect></g>
<g transform="translate(880,242) scale(3.7766666666667)"><rect width="6" height="6"></rect></g>
<g transform="translate(902,242) scale(3.7766666666667)"><rect width="6" height="6"></rect></g>
<g transform="translate(924,242) scale(3.7766666666667)"><rect width="6" height="6"></rect></g>
<g transform="translate(88,264) scale(3.7766666666667)"><rect width="6" height="6"></rect></g>
<g transform="translate(132,264) scale(3.7766666666667)"><rect width="6" height="6"></rect></g>
<g transform="translate(154,264) scale(3.7766666666667)"><rect width="6" height="6"></rect></g>
<g transform="translate(176,264) scale(3.7766666666667)"><rect width="6" height="6"></rect></g>
<g transform="translate(220,264) scale(3.7766666666667)"><rect width="6" height="6"></rect></g>
<g transform="translate(264,264) scale(3.7766666666667)"><rect width="6" height="6"></rect></g>
<g transform="translate(396,264) scale(3.7766666666667)"><rect width="6" height="6"></rect></g>
<g transform="translate(440,264) scale(3.7766666666667)"><rect width="6" height="6"></rect></g>
<g transform="translate(484,264) scale(3.7766666666667)"><rect width="6" height="6"></rect></g>
<g transform="translate(506,264) scale(3.7766666666667)"><rect width="6" height="6"></rect></g>
<g transform="translate(528,264) scale(3.7766666666667)"><rect width="6" height="6"></rect></g>
<g transform="translate(550,264) scale(3.7766666666667)"><rect width="6" height="6"></rect></g>
<g transform="translate(572,264) scale(3.7766666666667)"><rect width="6" height="6"></rect></g>
<g transform="translate(594,264) scale(3.7766666666667)"><rect width="6" height="6"></rect></g>
<g transform="translate(616,264) scale(3.7766666666667)"><rect width="6" height="6"></rect></g>
<g transform="translate(638,264) scale(3.7766666666667)"><rect width="6" height="6"></rect></g>
<g transform="translate(748,264) scale(3.7766666666667)"><rect width="6" height="6"></rect></g>
<g transform="translate(792,264) scale(3.7766666666667)"><rect width="6" height="6"></rect></g>
<g transform="translate(88,286) scale(3.7766666666667)"><rect width="6" height="6"></rect></g>
<g transform="translate(110,286) scale(3.7766666666667)"><rect width="6" height="6"></rect></g>
<g transform="translate(132,286) scale(3.7766666666667)"><rect width="6" height="6"></rect></g>
<g transform="translate(154,286) scale(3.7766666666667)"><rect width="6" height="6"></rect></g>
<g transform="translate(198,286) scale(3.7766666666667)"><rect width="6" height="6"></rect></g>
<g transform="translate(220,286) scale(3.7766666666667)"><rect width="6" height="6"></rect></g>
<g transform="translate(264,286) scale(3.7766666666667)"><rect width="6" height="6"></rect></g>
<g transform="translate(286,286) scale(3.7766666666667)"><rect width="6" height="6"></rect></g>
<g transform="translate(352,286) scale(3.7766666666667)"><rect width="6" height="6"></rect></g>
<g transform="translate(374,286) scale(3.7766666666667)"><rect width="6" height="6"></rect></g>
<g transform="translate(440,286) scale(3.7766666666667)"><rect width="6" height="6"></rect></g>
<g transform="translate(484,286) scale(3.7766666666667)"><rect width="6" height="6"></rect></g>
<g transform="translate(506,286) scale(3.7766666666667)"><rect width="6" height="6"></rect></g>
<g transform="translate(550,286) scale(3.7766666666667)"><rect width="6" height="6"></rect></g>
<g transform="translate(594,286) scale(3.7766666666667)"><rect width="6" height="6"></rect></g>
<g transform="translate(638,286) scale(3.7766666666667)"><rect width="6" height="6"></rect></g>
<g transform="translate(660,286) scale(3.7766666666667)"><rect width="6" height="6"></rect></g>
<g transform="translate(704,286) scale(3.7766666666667)"><rect width="6" height="6"></rect></g>
<g transform="translate(726,286) scale(3.7766666666667)"><rect width="6" height="6"></rect></g>
<g transform="translate(748,286) scale(3.7766666666667)"><rect width="6" height="6"></rect></g>
<g transform="translate(770,286) scale(3.7766666666667)"><rect width="6" height="6"></rect></g>
<g transform="translate(792,286) scale(3.7766666666667)"><rect width="6" height="6"></rect></g>
<g transform="translate(836,286) scale(3.7766666666667)"><rect width="6" height="6"></rect></g>
<g transform="translate(858,286) scale(3.7766666666667)"><rect width="6" height="6"></rect></g>
<g transform="translate(44,308) scale(3.7766666666667)"><rect width="6" height="6"></rect></g>
<g transform="translate(88,308) scale(3.7766666666667)"><rect width="6" height="6"></rect></g>
<g transform="translate(176,308) scale(3.7766666666667)"><rect width="6" height="6"></rect></g>
<g transform="translate(198,308) scale(3.7766666666667)"><rect width="6" height="6"></rect></g>
<g transform="translate(220,308) scale(3.7766666666667)"><rect width="6" height="6"></rect></g>
<g transform="translate(264,308) scale(3.7766666666667)"><rect width="6" height="6"></rect></g>
<g transform="translate(308,308) scale(3.7766666666667)"><rect width="6" height="6"></rect></g>
<g transform="translate(330,308) scale(3.7766666666667)"><rect width="6" height="6"></rect></g>
<g transform="translate(352,308) scale(3.7766666666667)"><rect width="6" height="6"></rect></g>
<g transform="translate(374,308) scale(3.7766666666667)"><rect width="6" height="6"></rect></g>
<g transform="translate(418,308) scale(3.7766666666667)"><rect width="6" height="6"></rect></g>
<g transform="translate(440,308) scale(3.7766666666667)"><rect width="6" height="6"></rect></g>
<g transform="translate(484,308) scale(3.7766666666667)"><rect width="6" height="6"></rect></g>
<g transform="translate(506,308) scale(3.7766666666667)"><rect width="6" height="6"></rect></g>
<g transform="translate(528,308) scale(3.7766666666667)"><rect width="6" height="6"></rect></g>
<g transform="translate(550,308) scale(3.7766666666667)"><rect width="6" height="6"></rect></g>
<g transform="translate(572,308) scale(3.7766666666667)"><rect width="6" height="6"></rect></g>
<g transform="translate(616,308) scale(3.7766666666667)"><rect width="6" height="6"></rect></g>
<g transform="translate(638,308) scale(3.7766666666667)"><rect width="6" height="6"></rect></g>
<g transform="translate(682,308) scale(3.7766666666667)"><rect width="6" height="6"></rect></g>
<g transform="translate(726,308) scale(3.7766666666667)"><rect width="6" height="6"></rect></g>
<g transform="translate(748,308) scale(3.7766666666667)"><rect width="6" height="6"></rect></g>
<g transform="translate(792,308) scale(3.7766666666667)"><rect width="6" height="6"></rect></g>
<g transform="translate(858,308) scale(3.7766666666667)"><rect width="6" height="6"></rect></g>
<g transform="translate(880,308) scale(3.7766666666667)"><rect width="6" height="6"></rect></g>
<g transform="translate(902,308) scale(3.7766666666667)"><rect width="6" height="6"></rect></g>
<g transform="translate(44,330) scale(3.7766666666667)"><rect width="6" height="6"></rect></g>
<g transform="translate(66,330) scale(3.7766666666667)"><rect width="6" height="6"></rect></g>
<g transform="translate(110,330) scale(3.7766666666667)"><rect width="6" height="6"></rect></g>
<g transform="translate(132,330) scale(3.7766666666667)"><rect width="6" height="6"></rect></g>
<g transform="translate(154,330) scale(3.7766666666667)"><rect width="6" height="6"></rect></g>
<g transform="translate(264,330) scale(3.7766666666667)"><rect width="6" height="6"></rect></g>
<g transform="translate(286,330) scale(3.7766666666667)"><rect width="6" height="6"></rect></g>
<g transform="translate(352,330) scale(3.7766666666667)"><rect width="6" height="6"></rect></g>
<g transform="translate(396,330) scale(3.7766666666667)"><rect width="6" height="6"></rect></g>
<g transform="translate(418,330) scale(3.7766666666667)"><rect width="6" height="6"></rect></g>
<g transform="translate(440,330) scale(3.7766666666667)"><rect width="6" height="6"></rect></g>
<g transform="translate(462,330) scale(3.7766666666667)"><rect width="6" height="6"></rect></g>
<g transform="translate(572,330) scale(3.7766666666667)"><rect width="6" height="6"></rect></g>
<g transform="translate(638,330) scale(3.7766666666667)"><rect width="6" height="6"></rect></g>
<g transform="translate(660,330) scale(3.7766666666667)"><rect width="6" height="6"></rect></g>
<g transform="translate(704,330) scale(3.7766666666667)"><rect width="6" height="6"></rect></g>
<g transform="translate(770,330) scale(3.7766666666667)"><rect width="6" height="6"></rect></g>
<g transform="translate(814,330) scale(3.7766666666667)"><rect width="6" height="6"></rect></g>
<g transform="translate(836,330) scale(3.7766666666667)"><rect width="6" height="6"></rect></g>
<g transform="translate(880,330) scale(3.7766666666667)"><rect width="6" height="6"></rect></g>
<g transform="translate(902,330) scale(3.7766666666667)"><rect width="6" height="6"></rect></g>
<g transform="translate(924,330) scale(3.7766666666667)"><rect width="6" height="6"></rect></g>
<g transform="translate(44,352) scale(3.7766666666667)"><rect width="6" height="6"></rect></g>
<g transform="translate(110,352) scale(3.7766666666667)"><rect width="6" height="6"></rect></g>
<g transform="translate(132,352) scale(3.7766666666667)"><rect width="6" height="6"></rect></g>
<g transform="translate(176,352) scale(3.7766666666667)"><rect width="6" height="6"></rect></g>
<g transform="translate(198,352) scale(3.7766666666667)"><rect width="6" height="6"></rect></g>
<g transform="translate(264,352) scale(3.7766666666667)"><rect width="6" height="6"></rect></g>
<g transform="translate(286,352) scale(3.7766666666667)"><rect width="6" height="6"></rect></g>
<g transform="translate(308,352) scale(3.7766666666667)"><rect width="6" height="6"></rect></g>
<g transform="translate(352,352) scale(3.7766666666667)"><rect width="6" height="6"></rect></g>
<g transform="translate(374,352) scale(3.7766666666667)"><rect width="6" height="6"></rect></g>
<g transform="translate(484,352) scale(3.7766666666667)"><rect width="6" height="6"></rect></g>
<g transform="translate(506,352) scale(3.7766666666667)"><rect width="6" height="6"></rect></g>
<g transform="translate(528,352) scale(3.7766666666667)"><rect width="6" height="6"></rect></g>
<g transform="translate(572,352) scale(3.7766666666667)"><rect width="6" height="6"></rect></g>
<g transform="translate(616,352) scale(3.7766666666667)"><rect width="6" height="6"></rect></g>
<g transform="translate(748,352) scale(3.7766666666667)"><rect width="6" height="6"></rect></g>
<g transform="translate(770,352) scale(3.7766666666667)"><rect width="6" height="6"></rect></g>
<g transform="translate(836,352) scale(3.7766666666667)"><rect width="6" height="6"></rect></g>
<g transform="translate(902,352) scale(3.7766666666667)"><rect width="6" height="6"></rect></g>
<g transform="translate(44,374) scale(3.7766666666667)"><rect width="6" height="6"></rect></g>
<g transform="translate(66,374) scale(3.7766666666667)"><rect width="6" height="6"></rect></g>
<g transform="translate(88,374) scale(3.7766666666667)"><rect width="6" height="6"></rect></g>
<g transform="translate(198,374) scale(3.7766666666667)"><rect width="6" height="6"></rect></g>
<g transform="translate(220,374) scale(3.7766666666667)"><rect width="6" height="6"></rect></g>
<g transform="translate(242,374) scale(3.7766666666667)"><rect width="6" height="6"></rect></g>
<g transform="translate(264,374) scale(3.7766666666667)"><rect width="6" height="6"></rect></g>
<g transform="translate(286,374) scale(3.7766666666667)"><rect width="6" height="6"></rect></g>
<g transform="translate(308,374) scale(3.7766666666667)"><rect width="6" height="6"></rect></g>
<g transform="translate(330,374) scale(3.7766666666667)"><rect width="6" height="6"></rect></g>
<g transform="translate(374,374) scale(3.7766666666667)"><rect width="6" height="6"></rect></g>
<g transform="translate(440,374) scale(3.7766666666667)"><rect width="6" height="6"></rect></g>
<g transform="translate(462,374) scale(3.7766666666667)"><rect width="6" height="6"></rect></g>
<g transform="translate(484,374) scale(3.7766666666667)"><rect width="6" height="6"></rect></g>
<g transform="translate(506,374) scale(3.7766666666667)"><rect width="6" height="6"></rect></g>
<g transform="translate(528,374) scale(3.7766666666667)"><rect width="6" height="6"></rect></g>
<g transform="translate(550,374) scale(3.7766666666667)"><rect width="6" height="6"></rect></g>
<g transform="translate(594,374) scale(3.7766666666667)"><rect width="6" height="6"></rect></g>
<g transform="translate(616,374) scale(3.7766666666667)"><rect width="6" height="6"></rect></g>
<g transform="translate(660,374) scale(3.7766666666667)"><rect width="6" height="6"></rect></g>
<g transform="translate(704,374) scale(3.7766666666667)"><rect width="6" height="6"></rect></g>
<g transform="translate(792,374) scale(3.7766666666667)"><rect width="6" height="6"></rect></g>
<g transform="translate(814,374) scale(3.7766666666667)"><rect width="6" height="6"></rect></g>
<g transform="translate(836,374) scale(3.7766666666667)"><rect width="6" height="6"></rect></g>
<g transform="translate(858,374) scale(3.7766666666667)"><rect width="6" height="6"></rect></g>
<g transform="translate(924,374) scale(3.7766666666667)"><rect width="6" height="6"></rect></g>
<g transform="translate(88,396) scale(3.7766666666667)"><rect width="6" height="6"></rect></g>
<g transform="translate(110,396) scale(3.7766666666667)"><rect width="6" height="6"></rect></g>
<g transform="translate(154,396) scale(3.7766666666667)"><rect width="6" height="6"></rect></g>
<g transform="translate(176,396) scale(3.7766666666667)"><rect width="6" height="6"></rect></g>
<g transform="translate(198,396) scale(3.7766666666667)"><rect width="6" height="6"></rect></g>
<g transform="translate(220,396) scale(3.7766666666667)"><rect width="6" height="6"></rect></g>
<g transform="translate(242,396) scale(3.7766666666667)"><rect width="6" height="6"></rect></g>
<g transform="translate(264,396) scale(3.7766666666667)"><rect width="6" height="6"></rect></g>
<g transform="translate(308,396) scale(3.7766666666667)"><rect width="6" height="6"></rect></g>
<g transform="translate(374,396) scale(3.7766666666667)"><rect width="6" height="6"></rect></g>
<g transform="translate(418,396) scale(3.7766666666667)"><rect width="6" height="6"></rect></g>
<g transform="translate(462,396) scale(3.7766666666667)"><rect width="6" height="6"></rect></g>
<g transform="translate(484,396) scale(3.7766666666667)"><rect width="6" height="6"></rect></g>
<g transform="translate(506,396) scale(3.7766666666667)"><rect width="6" height="6"></rect></g>
<g transform="translate(528,396) scale(3.7766666666667)"><rect width="6" height="6"></rect></g>
<g transform="translate(550,396) scale(3.7766666666667)"><rect width="6" height="6"></rect></g>
<g transform="translate(572,396) scale(3.7766666666667)"><rect width="6" height="6"></rect></g>
<g transform="translate(682,396) scale(3.7766666666667)"><rect width="6" height="6"></rect></g>
<g transform="translate(770,396) scale(3.7766666666667)"><rect width="6" height="6"></rect></g>
<g transform="translate(814,396) scale(3.7766666666667)"><rect width="6" height="6"></rect></g>
<g transform="translate(880,396) scale(3.7766666666667)"><rect width="6" height="6"></rect></g>
<g transform="translate(924,396) scale(3.7766666666667)"><rect width="6" height="6"></rect></g>
<g transform="translate(132,418) scale(3.7766666666667)"><rect width="6" height="6"></rect></g>
<g transform="translate(154,418) scale(3.7766666666667)"><rect width="6" height="6"></rect></g>
<g transform="translate(264,418) scale(3.7766666666667)"><rect width="6" height="6"></rect></g>
<g transform="translate(286,418) scale(3.7766666666667)"><rect width="6" height="6"></rect></g>
<g transform="translate(308,418) scale(3.7766666666667)"><rect width="6" height="6"></rect></g>
<g transform="translate(352,418) scale(3.7766666666667)"><rect width="6" height="6"></rect></g>
<g transform="translate(396,418) scale(3.7766666666667)"><rect width="6" height="6"></rect></g>
<g transform="translate(418,418) scale(3.7766666666667)"><rect width="6" height="6"></rect></g>
<g transform="translate(462,418) scale(3.7766666666667)"><rect width="6" height="6"></rect></g>
<g transform="translate(506,418) scale(3.7766666666667)"><rect width="6" height="6"></rect></g>
<g transform="translate(572,418) scale(3.7766666666667)"><rect width="6" height="6"></rect></g>
<g transform="translate(660,418) scale(3.7766666666667)"><rect width="6" height="6"></rect></g>
<g transform="translate(704,418) scale(3.7766666666667)"><rect width="6" height="6"></rect></g>
<g transform="translate(726,418) scale(3.7766666666667)"><rect width="6" height="6"></rect></g>
<g transform="translate(748,418) scale(3.7766666666667)"><rect width="6" height="6"></rect></g>
<g transform="translate(792,418) scale(3.7766666666667)"><rect width="6" height="6"></rect></g>
<g transform="translate(814,418) scale(3.7766666666667)"><rect width="6" height="6"></rect></g>
<g transform="translate(836,418) scale(3.7766666666667)"><rect width="6" height="6"></rect></g>
<g transform="translate(858,418) scale(3.7766666666667)"><rect width="6" height="6"></rect></g>
<g transform="translate(880,418) scale(3.7766666666667)"><rect width="6" height="6"></rect></g>
<g transform="translate(902,418) scale(3.7766666666667)"><rect width="6" height="6"></rect></g>
<g transform="translate(924,418) scale(3.7766666666667)"><rect width="6" height="6"></rect></g>
<g transform="translate(44,440) scale(3.7766666666667)"><rect width="6" height="6"></rect></g>
<g transform="translate(66,440) scale(3.7766666666667)"><rect width="6" height="6"></rect></g>
<g transform="translate(88,440) scale(3.7766666666667)"><rect width="6" height="6"></rect></g>
<g transform="translate(132,440) scale(3.7766666666667)"><rect width="6" height="6"></rect></g>
<g transform="translate(176,440) scale(3.7766666666667)"><rect width="6" height="6"></rect></g>
<g transform="translate(220,440) scale(3.7766666666667)"><rect width="6" height="6"></rect></g>
<g transform="translate(286,440) scale(3.7766666666667)"><rect width="6" height="6"></rect></g>
<g transform="translate(330,440) scale(3.7766666666667)"><rect width="6" height="6"></rect></g>
<g transform="translate(352,440) scale(3.7766666666667)"><rect width="6" height="6"></rect></g>
<g transform="translate(418,440) scale(3.7766666666667)"><rect width="6" height="6"></rect></g>
<g transform="translate(462,440) scale(3.7766666666667)"><rect width="6" height="6"></rect></g>
<g transform="translate(506,440) scale(3.7766666666667)"><rect width="6" height="6"></rect></g>
<g transform="translate(572,440) scale(3.7766666666667)"><rect width="6" height="6"></rect></g>
<g transform="translate(638,440) scale(3.7766666666667)"><rect width="6" height="6"></rect></g>
<g transform="translate(660,440) scale(3.7766666666667)"><rect width="6" height="6"></rect></g>
<g transform="translate(704,440) scale(3.7766666666667)"><rect width="6" height="6"></rect></g>
<g transform="translate(748,440) scale(3.7766666666667)"><rect width="6" height="6"></rect></g>
<g transform="translate(836,440) scale(3.7766666666667)"><rect width="6" height="6"></rect></g>
<g transform="translate(858,440) scale(3.7766666666667)"><rect width="6" height="6"></rect></g>
<g transform="translate(880,440) scale(3.7766666666667)"><rect width="6" height="6"></rect></g>
<g transform="translate(66,462) scale(3.7766666666667)"><rect width="6" height="6"></rect></g>
<g transform="translate(88,462) scale(3.7766666666667)"><rect width="6" height="6"></rect></g>
<g transform="translate(132,462) scale(3.7766666666667)"><rect width="6" height="6"></rect></g>
<g transform="translate(198,462) scale(3.7766666666667)"><rect width="6" height="6"></rect></g>
<g transform="translate(308,462) scale(3.7766666666667)"><rect width="6" height="6"></rect></g>
<g transform="translate(330,462) scale(3.7766666666667)"><rect width="6" height="6"></rect></g>
<g transform="translate(374,462) scale(3.7766666666667)"><rect width="6" height="6"></rect></g>
<g transform="translate(462,462) scale(3.7766666666667)"><rect width="6" height="6"></rect></g>
<g transform="translate(506,462) scale(3.7766666666667)"><rect width="6" height="6"></rect></g>
<g transform="translate(638,462) scale(3.7766666666667)"><rect width="6" height="6"></rect></g>
<g transform="translate(660,462) scale(3.7766666666667)"><rect width="6" height="6"></rect></g>
<g transform="translate(726,462) scale(3.7766666666667)"><rect width="6" height="6"></rect></g>
<g transform="translate(748,462) scale(3.7766666666667)"><rect width="6" height="6"></rect></g>
<g transform="translate(770,462) scale(3.7766666666667)"><rect width="6" height="6"></rect></g>
<g transform="translate(792,462) scale(3.7766666666667)"><rect width="6" height="6"></rect></g>
<g transform="translate(836,462) scale(3.7766666666667)"><rect width="6" height="6"></rect></g>
<g transform="translate(858,462) scale(3.7766666666667)"><rect width="6" height="6"></rect></g>
<g transform="translate(902,462) scale(3.7766666666667)"><rect width="6" height="6"></rect></g>
<g transform="translate(66,484) scale(3.7766666666667)"><rect width="6" height="6"></rect></g>
<g transform="translate(110,484) scale(3.7766666666667)"><rect width="6" height="6"></rect></g>
<g transform="translate(132,484) scale(3.7766666666667)"><rect width="6" height="6"></rect></g>
<g transform="translate(176,484) scale(3.7766666666667)"><rect width="6" height="6"></rect></g>
<g transform="translate(198,484) scale(3.7766666666667)"><rect width="6" height="6"></rect></g>
<g transform="translate(220,484) scale(3.7766666666667)"><rect width="6" height="6"></rect></g>
<g transform="translate(264,484) scale(3.7766666666667)"><rect width="6" height="6"></rect></g>
<g transform="translate(330,484) scale(3.7766666666667)"><rect width="6" height="6"></rect></g>
<g transform="translate(418,484) scale(3.7766666666667)"><rect width="6" height="6"></rect></g>
<g transform="translate(484,484) scale(3.7766666666667)"><rect width="6" height="6"></rect></g>
<g transform="translate(506,484) scale(3.7766666666667)"><rect width="6" height="6"></rect></g>
<g transform="translate(572,484) scale(3.7766666666667)"><rect width="6" height="6"></rect></g>
<g transform="translate(638,484) scale(3.7766666666667)"><rect width="6" height="6"></rect></g>
<g transform="translate(704,484) scale(3.7766666666667)"><rect width="6" height="6"></rect></g>
<g transform="translate(726,484) scale(3.7766666666667)"><rect width="6" height="6"></rect></g>
<g transform="translate(770,484) scale(3.7766666666667)"><rect width="6" height="6"></rect></g>
<g transform="translate(836,484) scale(3.7766666666667)"><rect width="6" height="6"></rect></g>
<g transform="translate(858,484) scale(3.7766666666667)"><rect width="6" height="6"></rect></g>
<g transform="translate(880,484) scale(3.7766666666667)"><rect width="6" height="6"></rect></g>
<g transform="translate(902,484) scale(3.7766666666667)"><rect width="6" height="6"></rect></g>
<g transform="translate(110,506) scale(3.7766666666667)"><rect width="6" height="6"></rect></g>
<g transform="translate(132,506) scale(3.7766666666667)"><rect width="6" height="6"></rect></g>
<g transform="translate(154,506) scale(3.7766666666667)"><rect width="6" height="6"></rect></g>
<g transform="translate(242,506) scale(3.7766666666667)"><rect width="6" height="6"></rect></g>
<g transform="translate(286,506) scale(3.7766666666667)"><rect width="6" height="6"></rect></g>
<g transform="translate(396,506) scale(3.7766666666667)"><rect width="6" height="6"></rect></g>
<g transform="translate(418,506) scale(3.7766666666667)"><rect width="6" height="6"></rect></g>
<g transform="translate(440,506) scale(3.7766666666667)"><rect width="6" height="6"></rect></g>
<g transform="translate(462,506) scale(3.7766666666667)"><rect width="6" height="6"></rect></g>
<g transform="translate(506,506) scale(3.7766666666667)"><rect width="6" height="6"></rect></g>
<g transform="translate(528,506) scale(3.7766666666667)"><rect width="6" height="6"></rect></g>
<g transform="translate(682,506) scale(3.7766666666667)"><rect width="6" height="6"></rect></g>
<g transform="translate(726,506) scale(3.7766666666667)"><rect width="6" height="6"></rect></g>
<g transform="translate(748,506) scale(3.7766666666667)"><rect width="6" height="6"></rect></g>
<g transform="translate(770,506) scale(3.7766666666667)"><rect width="6" height="6"></rect></g>
<g transform="translate(792,506) scale(3.7766666666667)"><rect width="6" height="6"></rect></g>
<g transform="translate(836,506) scale(3.7766666666667)"><rect width="6" height="6"></rect></g>
<g transform="translate(858,506) scale(3.7766666666667)"><rect width="6" height="6"></rect></g>
<g transform="translate(880,506) scale(3.7766666666667)"><rect width="6" height="6"></rect></g>
<g transform="translate(902,506) scale(3.7766666666667)"><rect width="6" height="6"></rect></g>
<g transform="translate(924,506) scale(3.7766666666667)"><rect width="6" height="6"></rect></g>
<g transform="translate(44,528) scale(3.7766666666667)"><rect width="6" height="6"></rect></g>
<g transform="translate(110,528) scale(3.7766666666667)"><rect width="6" height="6"></rect></g>
<g transform="translate(132,528) scale(3.7766666666667)"><rect width="6" height="6"></rect></g>
<g transform="translate(176,528) scale(3.7766666666667)"><rect width="6" height="6"></rect></g>
<g transform="translate(330,528) scale(3.7766666666667)"><rect width="6" height="6"></rect></g>
<g transform="translate(374,528) scale(3.7766666666667)"><rect width="6" height="6"></rect></g>
<g transform="translate(418,528) scale(3.7766666666667)"><rect width="6" height="6"></rect></g>
<g transform="translate(440,528) scale(3.7766666666667)"><rect width="6" height="6"></rect></g>
<g transform="translate(484,528) scale(3.7766666666667)"><rect width="6" height="6"></rect></g>
<g transform="translate(528,528) scale(3.7766666666667)"><rect width="6" height="6"></rect></g>
<g transform="translate(594,528) scale(3.7766666666667)"><rect width="6" height="6"></rect></g>
<g transform="translate(638,528) scale(3.7766666666667)"><rect width="6" height="6"></rect></g>
<g transform="translate(682,528) scale(3.7766666666667)"><rect width="6" height="6"></rect></g>
<g transform="translate(748,528) scale(3.7766666666667)"><rect width="6" height="6"></rect></g>
<g transform="translate(792,528) scale(3.7766666666667)"><rect width="6" height="6"></rect></g>
<g transform="translate(814,528) scale(3.7766666666667)"><rect width="6" height="6"></rect></g>
<g transform="translate(132,550) scale(3.7766666666667)"><rect width="6" height="6"></rect></g>
<g transform="translate(154,550) scale(3.7766666666667)"><rect width="6" height="6"></rect></g>
<g transform="translate(220,550) scale(3.7766666666667)"><rect width="6" height="6"></rect></g>
<g transform="translate(264,550) scale(3.7766666666667)"><rect width="6" height="6"></rect></g>
<g transform="translate(286,550) scale(3.7766666666667)"><rect width="6" height="6"></rect></g>
<g transform="translate(308,550) scale(3.7766666666667)"><rect width="6" height="6"></rect></g>
<g transform="translate(418,550) scale(3.7766666666667)"><rect width="6" height="6"></rect></g>
<g transform="translate(440,550) scale(3.7766666666667)"><rect width="6" height="6"></rect></g>
<g transform="translate(462,550) scale(3.7766666666667)"><rect width="6" height="6"></rect></g>
<g transform="translate(528,550) scale(3.7766666666667)"><rect width="6" height="6"></rect></g>
<g transform="translate(550,550) scale(3.7766666666667)"><rect width="6" height="6"></rect></g>
<g transform="translate(594,550) scale(3.7766666666667)"><rect width="6" height="6"></rect></g>
<g transform="translate(726,550) scale(3.7766666666667)"><rect width="6" height="6"></rect></g>
<g transform="translate(748,550) scale(3.7766666666667)"><rect width="6" height="6"></rect></g>
<g transform="translate(814,550) scale(3.7766666666667)"><rect width="6" height="6"></rect></g>
<g transform="translate(858,550) scale(3.7766666666667)"><rect width="6" height="6"></rect></g>
<g transform="translate(902,550) scale(3.7766666666667)"><rect width="6" height="6"></rect></g>
<g transform="translate(44,572) scale(3.7766666666667)"><rect width="6" height="6"></rect></g>
<g transform="translate(132,572) scale(3.7766666666667)"><rect width="6" height="6"></rect></g>
<g transform="translate(176,572) scale(3.7766666666667)"><rect width="6" height="6"></rect></g>
<g transform="translate(220,572) scale(3.7766666666667)"><rect width="6" height="6"></rect></g>
<g transform="translate(308,572) scale(3.7766666666667)"><rect width="6" height="6"></rect></g>
<g transform="translate(352,572) scale(3.7766666666667)"><rect width="6" height="6"></rect></g>
<g transform="translate(374,572) scale(3.7766666666667)"><rect width="6" height="6"></rect></g>
<g transform="translate(396,572) scale(3.7766666666667)"><rect width="6" height="6"></rect></g>
<g transform="translate(506,572) scale(3.7766666666667)"><rect width="6" height="6"></rect></g>
<g transform="translate(528,572) scale(3.7766666666667)"><rect width="6" height="6"></rect></g>
<g transform="translate(638,572) scale(3.7766666666667)"><rect width="6" height="6"></rect></g>
<g transform="translate(660,572) scale(3.7766666666667)"><rect width="6" height="6"></rect></g>
<g transform="translate(682,572) scale(3.7766666666667)"><rect width="6" height="6"></rect></g>
<g transform="translate(858,572) scale(3.7766666666667)"><rect width="6" height="6"></rect></g>
<g transform="translate(880,572) scale(3.7766666666667)"><rect width="6" height="6"></rect></g>
<g transform="translate(902,572) scale(3.7766666666667)"><rect width="6" height="6"></rect></g>
<g transform="translate(44,594) scale(3.7766666666667)"><rect width="6" height="6"></rect></g>
<g transform="translate(66,594) scale(3.7766666666667)"><rect width="6" height="6"></rect></g>
<g transform="translate(88,594) scale(3.7766666666667)"><rect width="6" height="6"></rect></g>
<g transform="translate(110,594) scale(3.7766666666667)"><rect width="6" height="6"></rect></g>
<g transform="translate(132,594) scale(3.7766666666667)"><rect width="6" height="6"></rect></g>
<g transform="translate(330,594) scale(3.7766666666667)"><rect width="6" height="6"></rect></g>
<g transform="translate(374,594) scale(3.7766666666667)"><rect width="6" height="6"></rect></g>
<g transform="translate(396,594) scale(3.7766666666667)"><rect width="6" height="6"></rect></g>
<g transform="translate(506,594) scale(3.7766666666667)"><rect width="6" height="6"></rect></g>
<g transform="translate(528,594) scale(3.7766666666667)"><rect width="6" height="6"></rect></g>
<g transform="translate(550,594) scale(3.7766666666667)"><rect width="6" height="6"></rect></g>
<g transform="translate(572,594) scale(3.7766666666667)"><rect width="6" height="6"></rect></g>
<g transform="translate(594,594) scale(3.7766666666667)"><rect width="6" height="6"></rect></g>
<g transform="translate(616,594) scale(3.7766666666667)"><rect width="6" height="6"></rect></g>
<g transform="translate(660,594) scale(3.7766666666667)"><rect width="6" height="6"></rect></g>
<g transform="translate(682,594) scale(3.7766666666667)"><rect width="6" height="6"></rect></g>
<g transform="translate(726,594) scale(3.7766666666667)"><rect width="6" height="6"></rect></g>
<g transform="translate(770,594) scale(3.7766666666667)"><rect width="6" height="6"></rect></g>
<g transform="translate(792,594) scale(3.7766666666667)"><rect width="6" height="6"></rect></g>
<g transform="translate(814,594) scale(3.7766666666667)"><rect width="6" height="6"></rect></g>
<g transform="translate(836,594) scale(3.7766666666667)"><rect width="6" height="6"></rect></g>
<g transform="translate(858,594) scale(3.7766666666667)"><rect width="6" height="6"></rect></g>
<g transform="translate(902,594) scale(3.7766666666667)"><rect width="6" height="6"></rect></g>
<g transform="translate(924,594) scale(3.7766666666667)"><rect width="6" height="6"></rect></g>
<g transform="translate(66,616) scale(3.7766666666667)"><rect width="6" height="6"></rect></g>
<g transform="translate(88,616) scale(3.7766666666667)"><rect width="6" height="6"></rect></g>
<g transform="translate(110,616) scale(3.7766666666667)"><rect width="6" height="6"></rect></g>
<g transform="translate(154,616) scale(3.7766666666667)"><rect width="6" height="6"></rect></g>
<g transform="translate(176,616) scale(3.7766666666667)"><rect width="6" height="6"></rect></g>
<g transform="translate(220,616) scale(3.7766666666667)"><rect width="6" height="6"></rect></g>
<g transform="translate(264,616) scale(3.7766666666667)"><rect width="6" height="6"></rect></g>
<g transform="translate(330,616) scale(3.7766666666667)"><rect width="6" height="6"></rect></g>
<g transform="translate(352,616) scale(3.7766666666667)"><rect width="6" height="6"></rect></g>
<g transform="translate(374,616) scale(3.7766666666667)"><rect width="6" height="6"></rect></g>
<g transform="translate(418,616) scale(3.7766666666667)"><rect width="6" height="6"></rect></g>
<g transform="translate(506,616) scale(3.7766666666667)"><rect width="6" height="6"></rect></g>
<g transform="translate(550,616) scale(3.7766666666667)"><rect width="6" height="6"></rect></g>
<g transform="translate(594,616) scale(3.7766666666667)"><rect width="6" height="6"></rect></g>
<g transform="translate(616,616) scale(3.7766666666667)"><rect width="6" height="6"></rect></g>
<g transform="translate(638,616) scale(3.7766666666667)"><rect width="6" height="6"></rect></g>
<g transform="translate(660,616) scale(3.7766666666667)"><rect width="6" height="6"></rect></g>
<g transform="translate(704,616) scale(3.7766666666667)"><rect width="6" height="6"></rect></g>
<g transform="translate(748,616) scale(3.7766666666667)"><rect width="6" height="6"></rect></g>
<g transform="translate(770,616) scale(3.7766666666667)"><rect width="6" height="6"></rect></g>
<g transform="translate(814,616) scale(3.7766666666667)"><rect width="6" height="6"></rect></g>
<g transform="translate(836,616) scale(3.7766666666667)"><rect width="6" height="6"></rect></g>
<g transform="translate(44,638) scale(3.7766666666667)"><rect width="6" height="6"></rect></g>
<g transform="translate(110,638) scale(3.7766666666667)"><rect width="6" height="6"></rect></g>
<g transform="translate(220,638) scale(3.7766666666667)"><rect width="6" height="6"></rect></g>
<g transform="translate(242,638) scale(3.7766666666667)"><rect width="6" height="6"></rect></g>
<g transform="translate(286,638) scale(3.7766666666667)"><rect width="6" height="6"></rect></g>
<g transform="translate(308,638) scale(3.7766666666667)"><rect width="6" height="6"></rect></g>
<g transform="translate(330,638) scale(3.7766666666667)"><rect width="6" height="6"></rect></g>
<g transform="translate(352,638) scale(3.7766666666667)"><rect width="6" height="6"></rect></g>
<g transform="translate(396,638) scale(3.7766666666667)"><rect width="6" height="6"></rect></g>
<g transform="translate(418,638) scale(3.7766666666667)"><rect width="6" height="6"></rect></g>
<g transform="translate(440,638) scale(3.7766666666667)"><rect width="6" height="6"></rect></g>
<g transform="translate(462,638) scale(3.7766666666667)"><rect width="6" height="6"></rect></g>
<g transform="translate(528,638) scale(3.7766666666667)"><rect width="6" height="6"></rect></g>
<g transform="translate(550,638) scale(3.7766666666667)"><rect width="6" height="6"></rect></g>
<g transform="translate(704,638) scale(3.7766666666667)"><rect width="6" height="6"></rect></g>
<g transform="translate(726,638) scale(3.7766666666667)"><rect width="6" height="6"></rect></g>
<g transform="translate(748,638) scale(3.7766666666667)"><rect width="6" height="6"></rect></g>
<g transform="translate(814,638) scale(3.7766666666667)"><rect width="6" height="6"></rect></g>
<g transform="translate(836,638) scale(3.7766666666667)"><rect width="6" height="6"></rect></g>
<g transform="translate(858,638) scale(3.7766666666667)"><rect width="6" height="6"></rect></g>
<g transform="translate(902,638) scale(3.7766666666667)"><rect width="6" height="6"></rect></g>
<g transform="translate(176,660) scale(3.7766666666667)"><rect width="6" height="6"></rect></g>
<g transform="translate(242,660) scale(3.7766666666667)"><rect width="6" height="6"></rect></g>
<g transform="translate(264,660) scale(3.7766666666667)"><rect width="6" height="6"></rect></g>
<g transform="translate(308,660) scale(3.7766666666667)"><rect width="6" height="6"></rect></g>
<g transform="translate(330,660) scale(3.7766666666667)"><rect width="6" height="6"></rect></g>
<g transform="translate(396,660) scale(3.7766666666667)"><rect width="6" height="6"></rect></g>
<g transform="translate(440,660) scale(3.7766666666667)"><rect width="6" height="6"></rect></g>
<g transform="translate(462,660) scale(3.7766666666667)"><rect width="6" height="6"></rect></g>
<g transform="translate(506,660) scale(3.7766666666667)"><rect width="6" height="6"></rect></g>
<g transform="translate(528,660) scale(3.7766666666667)"><rect width="6" height="6"></rect></g>
<g transform="translate(550,660) scale(3.7766666666667)"><rect width="6" height="6"></rect></g>
<g transform="translate(572,660) scale(3.7766666666667)"><rect width="6" height="6"></rect></g>
<g transform="translate(594,660) scale(3.7766666666667)"><rect width="6" height="6"></rect></g>
<g transform="translate(616,660) scale(3.7766666666667)"><rect width="6" height="6"></rect></g>
<g transform="translate(638,660) scale(3.7766666666667)"><rect width="6" height="6"></rect></g>
<g transform="translate(660,660) scale(3.7766666666667)"><rect width="6" height="6"></rect></g>
<g transform="translate(682,660) scale(3.7766666666667)"><rect width="6" height="6"></rect></g>
<g transform="translate(726,660) scale(3.7766666666667)"><rect width="6" height="6"></rect></g>
<g transform="translate(770,660) scale(3.7766666666667)"><rect width="6" height="6"></rect></g>
<g transform="translate(814,660) scale(3.7766666666667)"><rect width="6" height="6"></rect></g>
<g transform="translate(858,660) scale(3.7766666666667)"><rect width="6" height="6"></rect></g>
<g transform="translate(880,660) scale(3.7766666666667)"><rect width="6" height="6"></rect></g>
<g transform="translate(44,682) scale(3.7766666666667)"><rect width="6" height="6"></rect></g>
<g transform="translate(66,682) scale(3.7766666666667)"><rect width="6" height="6"></rect></g>
<g transform="translate(110,682) scale(3.7766666666667)"><rect width="6" height="6"></rect></g>
<g transform="translate(220,682) scale(3.7766666666667)"><rect width="6" height="6"></rect></g>
<g transform="translate(330,682) scale(3.7766666666667)"><rect width="6" height="6"></rect></g>
<g transform="translate(374,682) scale(3.7766666666667)"><rect width="6" height="6"></rect></g>
<g transform="translate(396,682) scale(3.7766666666667)"><rect width="6" height="6"></rect></g>
<g transform="translate(418,682) scale(3.7766666666667)"><rect width="6" height="6"></rect></g>
<g transform="translate(440,682) scale(3.7766666666667)"><rect width="6" height="6"></rect></g>
<g transform="translate(462,682) scale(3.7766666666667)"><rect width="6" height="6"></rect></g>
<g transform="translate(506,682) scale(3.7766666666667)"><rect width="6" height="6"></rect></g>
<g transform="translate(594,682) scale(3.7766666666667)"><rect width="6" height="6"></rect></g>
<g transform="translate(638,682) scale(3.7766666666667)"><rect width="6" height="6"></rect></g>
<g transform="translate(748,682) scale(3.7766666666667)"><rect width="6" height="6"></rect></g>
<g transform="translate(814,682) scale(3.7766666666667)"><rect width="6" height="6"></rect></g>
<g transform="translate(836,682) scale(3.7766666666667)"><rect width="6" height="6"></rect></g>
<g transform="translate(902,682) scale(3.7766666666667)"><rect width="6" height="6"></rect></g>
<g transform="translate(924,682) scale(3.7766666666667)"><rect width="6" height="6"></rect></g>
<g transform="translate(44,704) scale(3.7766666666667)"><rect width="6" height="6"></rect></g>
<g transform="translate(88,704) scale(3.7766666666667)"><rect width="6" height="6"></rect></g>
<g transform="translate(110,704) scale(3.7766666666667)"><rect width="6" height="6"></rect></g>
<g transform="translate(132,704) scale(3.7766666666667)"><rect width="6" height="6"></rect></g>
<g transform="translate(176,704) scale(3.7766666666667)"><rect width="6" height="6"></rect></g>
<g transform="translate(220,704) scale(3.7766666666667)"><rect width="6" height="6"></rect></g>
<g transform="translate(242,704) scale(3.7766666666667)"><rect width="6" height="6"></rect></g>
<g transform="translate(264,704) scale(3.7766666666667)"><rect width="6" height="6"></rect></g>
<g transform="translate(308,704) scale(3.7766666666667)"><rect width="6" height="6"></rect></g>
<g transform="translate(330,704) scale(3.7766666666667)"><rect width="6" height="6"></rect></g>
<g transform="translate(396,704) scale(3.7766666666667)"><rect width="6" height="6"></rect></g>
<g transform="translate(418,704) scale(3.7766666666667)"><rect width="6" height="6"></rect></g>
<g transform="translate(440,704) scale(3.7766666666667)"><rect width="6" height="6"></rect></g>
<g transform="translate(484,704) scale(3.7766666666667)"><rect width="6" height="6"></rect></g>
<g transform="translate(550,704) scale(3.7766666666667)"><rect width="6" height="6"></rect></g>
<g transform="translate(616,704) scale(3.7766666666667)"><rect width="6" height="6"></rect></g>
<g transform="translate(638,704) scale(3.7766666666667)"><rect width="6" height="6"></rect></g>
<g transform="translate(660,704) scale(3.7766666666667)"><rect width="6" height="6"></rect></g>
<g transform="translate(704,704) scale(3.7766666666667)"><rect width="6" height="6"></rect></g>
<g transform="translate(726,704) scale(3.7766666666667)"><rect width="6" height="6"></rect></g>
<g transform="translate(770,704) scale(3.7766666666667)"><rect width="6" height="6"></rect></g>
<g transform="translate(792,704) scale(3.7766666666667)"><rect width="6" height="6"></rect></g>
<g transform="translate(814,704) scale(3.7766666666667)"><rect width="6" height="6"></rect></g>
<g transform="translate(858,704) scale(3.7766666666667)"><rect width="6" height="6"></rect></g>
<g transform="translate(44,726) scale(3.7766666666667)"><rect width="6" height="6"></rect></g>
<g transform="translate(154,726) scale(3.7766666666667)"><rect width="6" height="6"></rect></g>
<g transform="translate(220,726) scale(3.7766666666667)"><rect width="6" height="6"></rect></g>
<g transform="translate(242,726) scale(3.7766666666667)"><rect width="6" height="6"></rect></g>
<g transform="translate(264,726) scale(3.7766666666667)"><rect width="6" height="6"></rect></g>
<g transform="translate(396,726) scale(3.7766666666667)"><rect width="6" height="6"></rect></g>
<g transform="translate(440,726) scale(3.7766666666667)"><rect width="6" height="6"></rect></g>
<g transform="translate(528,726) scale(3.7766666666667)"><rect width="6" height="6"></rect></g>
<g transform="translate(550,726) scale(3.7766666666667)"><rect width="6" height="6"></rect></g>
<g transform="translate(616,726) scale(3.7766666666667)"><rect width="6" height="6"></rect></g>
<g transform="translate(638,726) scale(3.7766666666667)"><rect width="6" height="6"></rect></g>
<g transform="translate(726,726) scale(3.7766666666667)"><rect width="6" height="6"></rect></g>
<g transform="translate(748,726) scale(3.7766666666667)"><rect width="6" height="6"></rect></g>
<g transform="translate(770,726) scale(3.7766666666667)"><rect width="6" height="6"></rect></g>
<g transform="translate(792,726) scale(3.7766666666667)"><rect width="6" height="6"></rect></g>
<g transform="translate(814,726) scale(3.7766666666667)"><rect width="6" height="6"></rect></g>
<g transform="translate(858,726) scale(3.7766666666667)"><rect width="6" height="6"></rect></g>
<g transform="translate(44,748) scale(3.7766666666667)"><rect width="6" height="6"></rect></g>
<g transform="translate(88,748) scale(3.7766666666667)"><rect width="6" height="6"></rect></g>
<g transform="translate(110,748) scale(3.7766666666667)"><rect width="6" height="6"></rect></g>
<g transform="translate(132,748) scale(3.7766666666667)"><rect width="6" height="6"></rect></g>
<g transform="translate(176,748) scale(3.7766666666667)"><rect width="6" height="6"></rect></g>
<g transform="translate(198,748) scale(3.7766666666667)"><rect width="6" height="6"></rect></g>
<g transform="translate(242,748) scale(3.7766666666667)"><rect width="6" height="6"></rect></g>
<g transform="translate(308,748) scale(3.7766666666667)"><rect width="6" height="6"></rect></g>
<g transform="translate(418,748) scale(3.7766666666667)"><rect width="6" height="6"></rect></g>
<g transform="translate(440,748) scale(3.7766666666667)"><rect width="6" height="6"></rect></g>
<g transform="translate(550,748) scale(3.7766666666667)"><rect width="6" height="6"></rect></g>
<g transform="translate(594,748) scale(3.7766666666667)"><rect width="6" height="6"></rect></g>
<g transform="translate(638,748) scale(3.7766666666667)"><rect width="6" height="6"></rect></g>
<g transform="translate(682,748) scale(3.7766666666667)"><rect width="6" height="6"></rect></g>
<g transform="translate(726,748) scale(3.7766666666667)"><rect width="6" height="6"></rect></g>
<g transform="translate(748,748) scale(3.7766666666667)"><rect width="6" height="6"></rect></g>
<g transform="translate(770,748) scale(3.7766666666667)"><rect width="6" height="6"></rect></g>
<g transform="translate(792,748) scale(3.7766666666667)"><rect width="6" height="6"></rect></g>
<g transform="translate(814,748) scale(3.7766666666667)"><rect width="6" height="6"></rect></g>
<g transform="translate(836,748) scale(3.7766666666667)"><rect width="6" height="6"></rect></g>
<g transform="translate(880,748) scale(3.7766666666667)"><rect width="6" height="6"></rect></g>
<g transform="translate(902,748) scale(3.7766666666667)"><rect width="6" height="6"></rect></g>
<g transform="translate(924,748) scale(3.7766666666667)"><rect width="6" height="6"></rect></g>
<g transform="translate(220,770) scale(3.7766666666667)"><rect width="6" height="6"></rect></g>
<g transform="translate(242,770) scale(3.7766666666667)"><rect width="6" height="6"></rect></g>
<g transform="translate(308,770) scale(3.7766666666667)"><rect width="6" height="6"></rect></g>
<g transform="translate(374,770) scale(3.7766666666667)"><rect width="6" height="6"></rect></g>
<g transform="translate(484,770) scale(3.7766666666667)"><rect width="6" height="6"></rect></g>
<g transform="translate(550,770) scale(3.7766666666667)"><rect width="6" height="6"></rect></g>
<g transform="translate(660,770) scale(3.7766666666667)"><rect width="6" height="6"></rect></g>
<g transform="translate(682,770) scale(3.7766666666667)"><rect width="6" height="6"></rect></g>
<g transform="translate(704,770) scale(3.7766666666667)"><rect width="6" height="6"></rect></g>
<g transform="translate(748,770) scale(3.7766666666667)"><rect width="6" height="6"></rect></g>
<g transform="translate(836,770) scale(3.7766666666667)"><rect width="6" height="6"></rect></g>
<g transform="translate(858,770) scale(3.7766666666667)"><rect width="6" height="6"></rect></g>
<g transform="translate(924,770) scale(3.7766666666667)"><rect width="6" height="6"></rect></g>
<g transform="translate(242,792) scale(3.7766666666667)"><rect width="6" height="6"></rect></g>
<g transform="translate(286,792) scale(3.7766666666667)"><rect width="6" height="6"></rect></g>
<g transform="translate(308,792) scale(3.7766666666667)"><rect width="6" height="6"></rect></g>
<g transform="translate(330,792) scale(3.7766666666667)"><rect width="6" height="6"></rect></g>
<g transform="translate(374,792) scale(3.7766666666667)"><rect width="6" height="6"></rect></g>
<g transform="translate(418,792) scale(3.7766666666667)"><rect width="6" height="6"></rect></g>
<g transform="translate(440,792) scale(3.7766666666667)"><rect width="6" height="6"></rect></g>
<g transform="translate(484,792) scale(3.7766666666667)"><rect width="6" height="6"></rect></g>
<g transform="translate(506,792) scale(3.7766666666667)"><rect width="6" height="6"></rect></g>
<g transform="translate(616,792) scale(3.7766666666667)"><rect width="6" height="6"></rect></g>
<g transform="translate(638,792) scale(3.7766666666667)"><rect width="6" height="6"></rect></g>
<g transform="translate(660,792) scale(3.7766666666667)"><rect width="6" height="6"></rect></g>
<g transform="translate(682,792) scale(3.7766666666667)"><rect width="6" height="6"></rect></g>
<g transform="translate(726,792) scale(3.7766666666667)"><rect width="6" height="6"></rect></g>
<g transform="translate(748,792) scale(3.7766666666667)"><rect width="6" height="6"></rect></g>
<g transform="translate(792,792) scale(3.7766666666667)"><rect width="6" height="6"></rect></g>
<g transform="translate(836,792) scale(3.7766666666667)"><rect width="6" height="6"></rect></g>
<g transform="translate(858,792) scale(3.7766666666667)"><rect width="6" height="6"></rect></g>
<g transform="translate(880,792) scale(3.7766666666667)"><rect width="6" height="6"></rect></g>
<g transform="translate(286,814) scale(3.7766666666667)"><rect width="6" height="6"></rect></g>
<g transform="translate(330,814) scale(3.7766666666667)"><rect width="6" height="6"></rect></g>
<g transform="translate(374,814) scale(3.7766666666667)"><rect width="6" height="6"></rect></g>
<g transform="translate(396,814) scale(3.7766666666667)"><rect width="6" height="6"></rect></g>
<g transform="translate(462,814) scale(3.7766666666667)"><rect width="6" height="6"></rect></g>
<g transform="translate(506,814) scale(3.7766666666667)"><rect width="6" height="6"></rect></g>
<g transform="translate(550,814) scale(3.7766666666667)"><rect width="6" height="6"></rect></g>
<g transform="translate(572,814) scale(3.7766666666667)"><rect width="6" height="6"></rect></g>
<g transform="translate(594,814) scale(3.7766666666667)"><rect width="6" height="6"></rect></g>
<g transform="translate(638,814) scale(3.7766666666667)"><rect width="6" height="6"></rect></g>
<g transform="translate(660,814) scale(3.7766666666667)"><rect width="6" height="6"></rect></g>
<g transform="translate(682,814) scale(3.7766666666667)"><rect width="6" height="6"></rect></g>
<g transform="translate(704,814) scale(3.7766666666667)"><rect width="6" height="6"></rect></g>
<g transform="translate(726,814) scale(3.7766666666667)"><rect width="6" height="6"></rect></g>
<g transform="translate(748,814) scale(3.7766666666667)"><rect width="6" height="6"></rect></g>
<g transform="translate(836,814) scale(3.7766666666667)"><rect width="6" height="6"></rect></g>
<g transform="translate(858,814) scale(3.7766666666667)"><rect width="6" height="6"></rect></g>
<g transform="translate(220,836) scale(3.7766666666667)"><rect width="6" height="6"></rect></g>
<g transform="translate(242,836) scale(3.7766666666667)"><rect width="6" height="6"></rect></g>
<g transform="translate(308,836) scale(3.7766666666667)"><rect width="6" height="6"></rect></g>
<g transform="translate(330,836) scale(3.7766666666667)"><rect width="6" height="6"></rect></g>
<g transform="translate(352,836) scale(3.7766666666667)"><rect width="6" height="6"></rect></g>
<g transform="translate(418,836) scale(3.7766666666667)"><rect width="6" height="6"></rect></g>
<g transform="translate(440,836) scale(3.7766666666667)"><rect width="6" height="6"></rect></g>
<g transform="translate(462,836) scale(3.7766666666667)"><rect width="6" height="6"></rect></g>
<g transform="translate(484,836) scale(3.7766666666667)"><rect width="6" height="6"></rect></g>
<g transform="translate(506,836) scale(3.7766666666667)"><rect width="6" height="6"></rect></g>
<g transform="translate(572,836) scale(3.7766666666667)"><rect width="6" height="6"></rect></g>
<g transform="translate(594,836) scale(3.7766666666667)"><rect width="6" height="6"></rect></g>
<g transform="translate(748,836) scale(3.7766666666667)"><rect width="6" height="6"></rect></g>
<g transform="translate(770,836) scale(3.7766666666667)"><rect width="6" height="6"></rect></g>
<g transform="translate(792,836) scale(3.7766666666667)"><rect width="6" height="6"></rect></g>
<g transform="translate(814,836) scale(3.7766666666667)"><rect width="6" height="6"></rect></g>
<g transform="translate(836,836) scale(3.7766666666667)"><rect width="6" height="6"></rect></g>
<g transform="translate(880,836) scale(3.7766666666667)"><rect width="6" height="6"></rect></g>
<g transform="translate(902,836) scale(3.7766666666667)"><rect width="6" height="6"></rect></g>
<g transform="translate(220,858) scale(3.7766666666667)"><rect width="6" height="6"></rect></g>
<g transform="translate(264,858) scale(3.7766666666667)"><rect width="6" height="6"></rect></g>
<g transform="translate(286,858) scale(3.7766666666667)"><rect width="6" height="6"></rect></g>
<g transform="translate(352,858) scale(3.7766666666667)"><rect width="6" height="6"></rect></g>
<g transform="translate(374,858) scale(3.7766666666667)"><rect width="6" height="6"></rect></g>
<g transform="translate(396,858) scale(3.7766666666667)"><rect width="6" height="6"></rect></g>
<g transform="translate(418,858) scale(3.7766666666667)"><rect width="6" height="6"></rect></g>
<g transform="translate(440,858) scale(3.7766666666667)"><rect width="6" height="6"></rect></g>
<g transform="translate(462,858) scale(3.7766666666667)"><rect width="6" height="6"></rect></g>
<g transform="translate(506,858) scale(3.7766666666667)"><rect width="6" height="6"></rect></g>
<g transform="translate(616,858) scale(3.7766666666667)"><rect width="6" height="6"></rect></g>
<g transform="translate(660,858) scale(3.7766666666667)"><rect width="6" height="6"></rect></g>
<g transform="translate(704,858) scale(3.7766666666667)"><rect width="6" height="6"></rect></g>
<g transform="translate(748,858) scale(3.7766666666667)"><rect width="6" height="6"></rect></g>
<g transform="translate(770,858) scale(3.7766666666667)"><rect width="6" height="6"></rect></g>
<g transform="translate(814,858) scale(3.7766666666667)"><rect width="6" height="6"></rect></g>
<g transform="translate(924,858) scale(3.7766666666667)"><rect width="6" height="6"></rect></g>
<g transform="translate(220,880) scale(3.7766666666667)"><rect width="6" height="6"></rect></g>
<g transform="translate(242,880) scale(3.7766666666667)"><rect width="6" height="6"></rect></g>
<g transform="translate(264,880) scale(3.7766666666667)"><rect width="6" height="6"></rect></g>
<g transform="translate(330,880) scale(3.7766666666667)"><rect width="6" height="6"></rect></g>
<g transform="translate(352,880) scale(3.7766666666667)"><rect width="6" height="6"></rect></g>
<g transform="translate(396,880) scale(3.7766666666667)"><rect width="6" height="6"></rect></g>
<g transform="translate(462,880) scale(3.7766666666667)"><rect width="6" height="6"></rect></g>
<g transform="translate(484,880) scale(3.7766666666667)"><rect width="6" height="6"></rect></g>
<g transform="translate(506,880) scale(3.7766666666667)"><rect width="6" height="6"></rect></g>
<g transform="translate(528,880) scale(3.7766666666667)"><rect width="6" height="6"></rect></g>
<g transform="translate(550,880) scale(3.7766666666667)"><rect width="6" height="6"></rect></g>
<g transform="translate(572,880) scale(3.7766666666667)"><rect width="6" height="6"></rect></g>
<g transform="translate(594,880) scale(3.7766666666667)"><rect width="6" height="6"></rect></g>
<g transform="translate(616,880) scale(3.7766666666667)"><rect width="6" height="6"></rect></g>
<g transform="translate(638,880) scale(3.7766666666667)"><rect width="6" height="6"></rect></g>
<g transform="translate(660,880) scale(3.7766666666667)"><rect width="6" height="6"></rect></g>
<g transform="translate(726,880) scale(3.7766666666667)"><rect width="6" height="6"></rect></g>
<g transform="translate(770,880) scale(3.7766666666667)"><rect width="6" height="6"></rect></g>
<g transform="translate(792,880) scale(3.7766666666667)"><rect width="6" height="6"></rect></g>
<g transform="translate(814,880) scale(3.7766666666667)"><rect width="6" height="6"></rect></g>
<g transform="translate(836,880) scale(3.7766666666667)"><rect width="6" height="6"></rect></g>
<g transform="translate(858,880) scale(3.7766666666667)"><rect width="6" height="6"></rect></g>
<g transform="translate(880,880) scale(3.7766666666667)"><rect width="6" height="6"></rect></g>
<g transform="translate(902,880) scale(3.7766666666667)"><rect width="6" height="6"></rect></g>
<g transform="translate(264,902) scale(3.7766666666667)"><rect width="6" height="6"></rect></g>
<g transform="translate(286,902) scale(3.7766666666667)"><rect width="6" height="6"></rect></g>
<g transform="translate(308,902) scale(3.7766666666667)"><rect width="6" height="6"></rect></g>
<g transform="translate(330,902) scale(3.7766666666667)"><rect width="6" height="6"></rect></g>
<g transform="translate(374,902) scale(3.7766666666667)"><rect width="6" height="6"></rect></g>
<g transform="translate(506,902) scale(3.7766666666667)"><rect width="6" height="6"></rect></g>
<g transform="translate(528,902) scale(3.7766666666667)"><rect width="6" height="6"></rect></g>
<g transform="translate(550,902) scale(3.7766666666667)"><rect width="6" height="6"></rect></g>
<g transform="translate(572,902) scale(3.7766666666667)"><rect width="6" height="6"></rect></g>
<g transform="translate(616,902) scale(3.7766666666667)"><rect width="6" height="6"></rect></g>
<g transform="translate(638,902) scale(3.7766666666667)"><rect width="6" height="6"></rect></g>
<g transform="translate(660,902) scale(3.7766666666667)"><rect width="6" height="6"></rect></g>
<g transform="translate(748,902) scale(3.7766666666667)"><rect width="6" height="6"></rect></g>
<g transform="translate(792,902) scale(3.7766666666667)"><rect width="6" height="6"></rect></g>
<g transform="translate(836,902) scale(3.7766666666667)"><rect width="6" height="6"></rect></g>
<g transform="translate(902,902) scale(3.7766666666667)"><rect width="6" height="6"></rect></g>
<g transform="translate(242,924) scale(3.7766666666667)"><rect width="6" height="6"></rect></g>
<g transform="translate(352,924) scale(3.7766666666667)"><rect width="6" height="6"></rect></g>
<g transform="translate(374,924) scale(3.7766666666667)"><rect width="6" height="6"></rect></g>
<g transform="translate(396,924) scale(3.7766666666667)"><rect width="6" height="6"></rect></g>
<g transform="translate(418,924) scale(3.7766666666667)"><rect width="6" height="6"></rect></g>
<g transform="translate(440,924) scale(3.7766666666667)"><rect width="6" height="6"></rect></g>
<g transform="translate(462,924) scale(3.7766666666667)"><rect width="6" height="6"></rect></g>
<g transform="translate(506,924) scale(3.7766666666667)"><rect width="6" height="6"></rect></g>
<g transform="translate(616,924) scale(3.7766666666667)"><rect width="6" height="6"></rect></g>
<g transform="translate(638,924) scale(3.7766666666667)"><rect width="6" height="6"></rect></g>
<g transform="translate(660,924) scale(3.7766666666667)"><rect width="6" height="6"></rect></g>
<g transform="translate(682,924) scale(3.7766666666667)"><rect width="6" height="6"></rect></g>
<g transform="translate(726,924) scale(3.7766666666667)"><rect width="6" height="6"></rect></g>
<g transform="translate(770,924) scale(3.7766666666667)"><rect width="6" height="6"></rect></g>
<g transform="translate(792,924) scale(3.7766666666667)"><rect width="6" height="6"></rect></g>
<g transform="translate(814,924) scale(3.7766666666667)"><rect width="6" height="6"></rect></g>
<g transform="translate(836,924) scale(3.7766666666667)"><rect width="6" height="6"></rect></g>
<g transform="translate(880,924) scale(3.7766666666667)"><rect width="6" height="6"></rect></g>
</g><g><g transform="translate(44,44)" fill="#000000"><g transform="scale(11)"><path d="M0,0v14h14V0H0z M12,12H2V2h10V12z"></path></g></g>
<g transform="translate(792,44)" fill="#000000"><g transform="scale(11)"><path d="M0,0v14h14V0H0z M12,12H2V2h10V12z"></path></g></g>
<g transform="translate(44,792)" fill="#000000"><g transform="scale(11)"><path d="M0,0v14h14V0H0z M12,12H2V2h10V12z"></path></g></g>
<g transform="translate(88,88)" fill="#000000"><g transform="scale(11)"><rect width="6" height="6"></rect></g></g>
<g transform="translate(836,88)" fill="#000000"><g transform="scale(11)"><rect width="6" height="6"></rect></g></g>
<g transform="translate(88,836)" fill="#000000"><g transform="scale(11)"><rect width="6" height="6"></rect></g></g></g>
</svg>